<?xml version="1.0" encoding="UTF-8" standalone="no"?>
<!-- Created with Inkscape (http://www.inkscape.org/) -->

<svg
   width="512"
   height="512"
   viewBox="0 0 512 512"
   version="1.1"
   id="svg5"
   inkscape:version="1.2.2 (b0a8486541, 2022-12-01)"
   sodipodi:docname="Insignia_512x512.svg"
   inkscape:export-filename="Insignia_512x512.png"
   inkscape:export-xdpi="96"
   inkscape:export-ydpi="96"
   xmlns:inkscape="http://www.inkscape.org/namespaces/inkscape"
   xmlns:sodipodi="http://sodipodi.sourceforge.net/DTD/sodipodi-0.dtd"
   xmlns="http://www.w3.org/2000/svg"
   xmlns:svg="http://www.w3.org/2000/svg">
  <sodipodi:namedview
     id="namedview7"
     pagecolor="#ffffff"
     bordercolor="#999999"
     borderopacity="1"
     inkscape:showpageshadow="0"
     inkscape:pageopacity="0"
     inkscape:pagecheckerboard="0"
     inkscape:deskcolor="#d1d1d1"
     inkscape:document-units="px"
     showgrid="true"
     inkscape:zoom="1.84375"
     inkscape:cx="168.40678"
     inkscape:cy="264.67797"
     inkscape:window-width="2560"
     inkscape:window-height="1354"
     inkscape:window-x="0"
     inkscape:window-y="30"
     inkscape:window-maximized="1"
     inkscape:current-layer="layer1">
    <inkscape:grid
       type="xygrid"
       id="grid1775"
       spacingx="16"
       spacingy="16"
       empspacing="4" />
  </sodipodi:namedview>
  <defs
     id="defs2" />
  <g
     inkscape:label="Layer 1"
     inkscape:groupmode="layer"
     id="layer1">
    <rect
       style="fill:#544e81;fill-opacity:1;stroke:none;stroke-width:0;stroke-dasharray:none"
       id="rect1625"
       width="512"
       height="512"
       x="0"
       y="0" />
    <path
       style="fill:#e2a752;fill-opacity:1;fill-rule:evenodd;stroke:none;stroke-width:1px;stroke-linecap:butt;stroke-linejoin:miter;stroke-opacity:1"
       d="m 256,32 h 32 l 192,192 v 64 L 288,480 h -32 v -32 h 16 L 448,272 V 240 L 272,64 h -16 z"
       id="path11311" />
    <path
       style="fill:#e2a752;fill-opacity:1;fill-rule:evenodd;stroke:none;stroke-width:1px;stroke-linecap:butt;stroke-linejoin:miter;stroke-opacity:1"
       d="M 256,32 H 224 L 32,224 v 64 l 192,192 h 32 V 448 H 240 L 64,272 V 240 L 240,64 h 16 z"
       id="path11311-3" />
    <path
       style="fill:#e2a752;fill-opacity:1;fill-rule:evenodd;stroke:none;stroke-width:1px;stroke-linecap:butt;stroke-linejoin:miter;stroke-opacity:1"
       d="m 160,256 c 0,-48 48,-96 96,-96 v 32 c -32,0 -62.29335,32.40612 -64,64 0,32 32,64 64,64 v 32 c -48,0 -96,-48 -96,-96 z"
       id="path1056"
       sodipodi:nodetypes="ccccccc" />
    <path
       style="fill:#e2a752;fill-opacity:1;fill-rule:evenodd;stroke:none;stroke-width:1px;stroke-linecap:butt;stroke-linejoin:miter;stroke-opacity:1"
       d="m 352,256 c 0,-48 -48,-96 -96,-96 v 32 c 32,0 64,32 64,64 0,32 -31.32203,61.98979 -64,64 v 32 c 48,0 96,-48 96,-96 z"
       id="path1056-3"
       sodipodi:nodetypes="ccccccc" />
    <circle
       style="fill:#e2a752;fill-opacity:1;stroke:none;stroke-width:3.7647"
       id="path1129"
       cx="256"
       cy="256"
       r="30.117647" />
  </g>
</svg>
